<svg xmlns="http://www.w3.org/2000/svg" width="16" height="14"><path fill="#3656CC" fill-rule="evenodd" d="M11.006 0h3.991c0.565 0 1.003 0.449 1.003 1.003v3.991c0 1.119 -0.634 1.372 -1.417 0.589l-1.376 -1.376l-2.5 2.5c-0.391 0.391 -1.024 0.391 -1.414 0c-0.391 -0.391 -0.391 -1.024 0 -1.414l2.5 -2.5l-1.376 -1.376c-0.783 -0.783 -0.518 -1.417 0.589 -1.417zm-11.006 1c0 -0.552 0.448 -1 1 -1h6c0.552 0 1 0.448 1 1s-0.448 1 -1 1h-5v10h12v-3c0 -0.552 0.448 -1 1 -1s1 0.448 1 1v4c0 0.552 -0.448 1 -1 1h-14c-0.552 0 -1 -0.448 -1 -1v-12z"/></svg>